#!OML:ASF I:\salsa\salsa 7_09\Patient 1\Session 1\dancerfemale.ASF
:FULLY-SPECIFIED
:DEGREES
2036
root 0.51921 16.4551 -6.61844 -1579.02 1179.59 -504.684
lowerback -2.93627 4.42125 -0.763314
upperback -6.04788 5.98351 -3.48688
thorax -4.31505 3.01926 -3.22767
lowerneck 2.12037 -4.94291 -7.91885
upperneck 9.36745 -7.19186 9.94078
head 3.06634 -3.46823 4.14174
rclavicle 4.20678e-014 4.96962e-015
rhumerus 6.45253 44.5156 -52.1823
rradius 66.3816
rwrist 2.15814
rhand -0.724671 -282.182
rfingers 7.12502
rthumb 24.8961 49.4196
lclavicle 4.20678e-014 4.96962e-015
lhumerus -22.4223 -32.9253 106.947
lradius 79.1972
lwrist 16.3146
lhand -30.494 29.686
lfingers 7.12502
lthumb -3.79454 -300.368
rfemur -16.6856 -14.1943 23.3913
rtibia 32.8049
rfoot -25.0561 -29.3895
rtoes -9.19239
lfemur -12.5 -0.108524 -23.455
ltibia 34.6033
lfoot -12.0226 -0.576512
ltoes -34.1832
2037
root 0.535948 16.4525 -6.62259 -1580.65 1179.72 -506.389
lowerback -2.94853 4.364 -0.707311
upperback -6.16834 5.90832 -3.49539
thorax -4.43191 2.97925 -3.27432
lowerneck 2.08069 -4.81148 -7.9523
upperneck 9.39264 -7.03866 10.2828
head 3.07724 -3.38002 4.25776
rclavicle 2.45499e-014 1.98785e-014
rhumerus 5.33544 44.4221 -53.5019
rradius 66.3832
rwrist 1.88233
rhand -1.12457 -282.109
rfingers 7.12502
rthumb 24.5128 49.4398
lclavicle 2.45499e-014 1.98785e-014
lhumerus -23.5996 -32.5719 106.833
lradius 79.2457
lwrist 15.7851
lhand -30.6074 28.695
lfingers 7.12502
lthumb -3.90401 -301.361
rfemur -16.5403 -13.9342 23.561
rtibia 32.4805
rfoot -25.341 -29.4536
rtoes -8.09213
lfemur -12.3766 -0.0723183 -23.337
ltibia 34.494
lfoot -12.2383 -0.34895
ltoes -34.0501
2038
root 0.553324 16.452 -6.62811 -1581.56 1179.94 -507.394
lowerback -3.03493 4.32043 -0.822491
upperback -6.26388 5.85397 -3.50082
thorax -4.4973 2.95805 -3.2155
lowerneck 1.94361 -4.74782 -8.07062
upperneck 9.56152 -6.97888 10.6048
head 3.15789 -3.3361 4.37524
rclavicle -2.28602e-015 -2.62396e-014
rhumerus 3.94236 44.1362 -55.0158
rradius 66.3255
rwrist 1.618
rhand -1.99172 -282.089
rfingers 7.12502
rthumb 23.6813 49.3502
lclavicle -2.28602e-015 -2.62396e-014
lhumerus -24.9713 -32.339 106.914
lradius 79.3188
lwrist 15.3186
lhand -31.4128 28.0791
lfingers 7.12502
lthumb -4.68171 -301.993
rfemur -16.3902 -13.7437 23.5778
rtibia 32.148
rfoot -25.7265 -29.3688
rtoes -6.52437
lfemur -12.2444 -0.105064 -23.3866
ltibia 34.3404
lfoot -12.4332 -0.0381966
ltoes -33.7227
2039
root 0.571281 16.4541 -6.63358 -1582.44 1180.19 -508.42
lowerback -3.2689 4.31137 -0.919653
upperback -6.30797 5.84933 -3.55393
thorax -4.41641 2.96175 -3.19864
lowerneck 1.80764 -4.73633 -7.91193
upperneck 9.60531 -6.96942 10.7306
head 3.19063 -3.31639 4.3849
rclavicle 6.27663e-014 -3.57812e-015
rhumerus 2.22165 43.4445 -56.9308
rradius 66.177
rwrist 1.40074
rhand -3.05669 -281.988
rfingers 7.12502
rthumb 22.6596 49.3219
lclavicle 6.27663e-014 -3.57812e-015
lhumerus -26.4118 -32.2013 106.981
lradius 79.3203
lwrist 14.4116
lhand -32.1586 27.8029
lfingers 7.12502
lthumb -5.40182 -302.286
rfemur -16.3 -13.5088 23.595
rtibia 31.8357
rfoot -25.1479 -29.3841
rtoes -9.91946
lfemur -12.1347 -0.131462 -23.4468
ltibia 34.1238
lfoot -12.601 0.26585
ltoes -33.6367
2040
root 0.589525 16.4564 -6.63758 -1582.97 1180.49 -509.138
lowerback -3.48796 4.32643 -1.02434
upperback -6.40626 5.87722 -3.7045
thorax -4.39064 2.98096 -3.28344
lowerneck 1.78962 -4.72482 -7.63619
upperneck 9.58605 -6.96192 10.8714
head 3.18164 -3.29642 4.38317
rclavicle 2.73826e-014 -2.78299e-014
rhumerus -0.042841 42.3729 -59.3801
rradius 65.9587
rwrist 1.36795
rhand -3.4395 -281.991
rfingers 7.12502
rthumb 22.2921 49.2752
lclavicle 2.73826e-014 -2.78299e-014
lhumerus -27.9915 -31.6209 106.933
lradius 79.0311
lwrist 12.6011
lhand -32.0297 27.1248
lfingers 7.12502
lthumb -5.27737 -302.961
rfemur -16.2502 -13.1906 23.5555
rtibia 31.5144
rfoot -25.4759 -29.4541
rtoes -11.7758
lfemur -12.066 -0.147734 -23.5652
ltibia 33.8846
lfoot -12.73 0.524667
ltoes -33.6573
2041
root 0.606254 16.4584 -6.63963 -1582.85 1180.8 -509.188
lowerback -3.66187 4.31127 -1.32019
upperback -6.49271 5.86577 -3.82028
thorax -4.40239 2.98909 -3.23126
lowerneck 1.68735 -4.71612 -7.52328
upperneck 9.65123 -6.96302 11.0486
head 3.21938 -3.28137 4.41682
rclavicle -3.46382e-014 0
rhumerus -2.48257 41.1676 -61.849
rradius 65.6618
rwrist 1.49931
rhand -3.45545 -282.329
rfingers 7.12502
rthumb 22.2768 48.9349
lclavicle -3.46382e-014 0
lhumerus -29.4856 -30.4979 106.798
lradius 78.3807
lwrist 10.144
lhand -31.4063 26.1344
lfingers 7.12502
lthumb -4.67551 -303.937
rfemur -16.1522 -12.9239 23.3948
rtibia 31.1451
rfoot -25.9447 -29.3928
rtoes -10.049
lfemur -12.0357 -0.144186 -23.7877
ltibia 33.6786
lfoot -12.7886 0.706012
ltoes -33.6233
2042
root 0.617768 16.4606 -6.64024 -1583.24 1180.99 -509.659
lowerback -3.70576 4.26761 -1.5107
upperback -6.52192 5.8103 -3.86185
thorax -4.4257 2.96977 -3.16825
lowerneck 1.44053 -4.68974 -7.53021
upperneck 9.78683 -6.94574 11.3014
head 3.30675 -3.2533 4.49074
rclavicle -7.95139e-016 2.66371e-014
rhumerus -4.99952 39.8454 -64.3802
rradius 65.2869
rwrist 1.524
rhand -3.43443 -283.162
rfingers 7.12502
rthumb 22.297 48.1043
lclavicle -7.95139e-016 2.66371e-014
lhumerus -30.8603 -29.3169 106.485
lradius 77.6778
lwrist 7.63456
lhand -30.8284 25.3359
lfingers 7.12502
lthumb -4.11743 -304.724
rfemur -15.9283 -12.6898 23.3705
rtibia 30.746
rfoot -26.0148 -29.2793
rtoes -6.76599
lfemur -11.9646 -0.164286 -23.8359
ltibia 33.5253
lfoot -12.8096 0.839343
ltoes -33.7606
2043
root 0.630797 16.4636 -6.63914 -1584.55 1181.15 -511.12
lowerback -3.79698 4.27064 -1.48901
upperback -6.59493 5.81778 -3.88042
thorax -4.44708 2.97347 -3.19613
lowerneck 1.31431 -4.65852 -7.5959
upperneck 9.83408 -6.92794 11.6471
head 3.35245 -3.2285 4.607
rclavicle -3.59303e-014 4.37326e-015
rhumerus -7.78096 38.2994 -67.1374
rradius 64.8319
rwrist 1.24488
rhand -3.37577 -284.163
rfingers 7.12502
rthumb 22.3533 47.1103
lclavicle -3.59303e-014 4.37326e-015
lhumerus -32.3288 -27.8828 106.075
lradius 76.8287
lwrist 4.99213
lhand -30.3725 24.5881
lfingers 7.12502
lthumb -3.67717 -305.464
rfemur -15.7828 -12.3909 23.555
rtibia 30.3207
rfoot -26.138 -29.1617
rtoes -4.50871
lfemur -11.9935 -0.16 -23.6833
ltibia 33.457
lfoot -12.8796 0.997403
ltoes -33.9586
2044
root 0.649809 16.4666 -6.63746 -1585.74 1181.47 -512.648
lowerback -4.12004 4.31124 -1.51623
upperback -6.7043 5.88631 -3.89422
thorax -4.37945 3.0126 -3.17321
lowerneck 1.23003 -4.65008 -7.74031
upperneck 9.84617 -6.93868 11.9688
head 3.38561 -3.224 4.72901
rclavicle -2.61899e-014 -5.1684e-015
rhumerus -10.7039 36.5098 -69.9051
rradius 64.2556
rwrist 0.81179
rhand -3.62071 -285.028
rfingers 7.12502
rthumb 22.1181 46.217
lclavicle -2.61899e-014 -5.1684e-015
lhumerus -33.744 -25.8929 105.531
lradius 75.6103
lwrist 1.82763
lhand -29.7095 23.7147
lfingers 7.12502
lthumb -3.03696 -306.327
rfemur -15.8384 -12.1047 23.7056
rtibia 29.8746
rfoot -25.9265 -29.0122
rtoes -4.40581
lfemur -12.236 -0.0735188 -23.607
ltibia 33.4745
lfoot -12.9963 1.19603
ltoes -34.0314
2045
root 0.657565 16.4681 -6.64015 -1587.22 1181.69 -514.339
lowerback -4.16769 4.3749 -1.38885
upperback -6.78988 5.97154 -3.9339
thorax -4.42254 3.04975 -3.28491
lowerneck 1.03435 -4.71977 -7.70643
upperneck 9.93778 -7.0488 12.1723
head 3.4621 -3.26032 4.77734
rclavicle -2.95195e-014 2.8625e-014
rhumerus -13.7104 34.2414 -72.6258
rradius 63.5442
rwrist 0.553752
rhand -3.92908 -285.964
rfingers 7.12502
rthumb 21.8221 45.2468
lclavicle -2.95195e-014 2.8625e-014
lhumerus -35.003 -23.727 104.734
lradius 74.0867
lwrist -1.45351
lhand -28.8301 23.0233
lfingers 7.12502
lthumb -2.1876 -307.008
rfemur -15.8186 -11.832 23.9446
rtibia 29.4681
rfoot -25.9908 -28.9155
rtoes -3.38054
lfemur -12.4316 0.0184814 -23.4281
ltibia 33.5116
lfoot -13.0417 1.35622
ltoes -34.0718
2046
root 0.659346 16.4705 -6.64755 -1588.23 1181.72 -515.506
lowerback -4.0489 4.40149 -1.21368
upperback -6.88376 6.00036 -4.02195
thorax -4.56033 3.05411 -3.48964
lowerneck 0.92789 -4.82151 -7.45138
upperneck 9.96398 -7.19488 12.273
head 3.49729 -3.31338 4.75716
rclavicle -2.11209e-014 3.18055e-014
rhumerus -16.7457 31.5781 -75.2502
rradius 62.6283
rwrist 0.431212
rhand -3.88499 -286.872
rfingers 7.12502
rthumb 21.8644 44.3435
lclavicle -2.11209e-014 3.18055e-014
lhumerus -36.1358 -21.4133 103.701
lradius 72.329
lwrist -4.36169
lhand -27.5788 23.6769
lfingers 7.12502
lthumb -0.97912 -306.346
rfemur -15.7806 -11.7021 24.176
rtibia 29.1492
rfoot -26.3355 -28.9526
rtoes -3.39552
lfemur -12.5651 0.0264308 -23.2383
ltibia 33.4968
lfoot -13.0272 1.42069
ltoes -33.9863
2047
root 0.677419 16.4713 -6.65469 -1587.92 1181.87 -515.335
lowerback -4.14749 4.39971 -1.35601
upperback -6.92538 6.00354 -4.0998
thorax -4.55535 3.06263 -3.48614
lowerneck 0.856553 -4.87769 -7.41441
upperneck 9.94112 -7.28054 12.4349
head 3.51527 -3.34569 4.79596
rclavicle -1.21259e-014 -1.07344e-014
rhumerus -19.6991 28.7169 -77.5612
rradius 61.4486
rwrist 0.33197
rhand -3.66154 -287.474
rfingers 7.12502
rthumb 22.0789 43.7663
lclavicle -1.21259e-014 -1.07344e-014
lhumerus -37.1291 -18.8552 102.569
lradius 70.173
lwrist -6.24085
lhand -26.7029 23.9849
lfingers 7.12502
lthumb -0.133185 -306.035
rfemur -15.7037 -11.7935 24.0403
rtibia 28.9014
rfoot -26.9169 -28.811
rtoes -3.58047
lfemur -12.612 0.0732526 -23.3973
ltibia 33.4778
lfoot -13.1252 1.45173
ltoes -33.7864
2048
root 0.70592 16.4652 -6.6576 -1588.01 1182.39 -515.366
lowerback -4.21312 4.53158 -1.65466
upperback -6.8649 6.18417 -4.14018
thorax -4.47363 3.16607 -3.35242
lowerneck 0.765254 -4.94321 -7.72234
upperneck 9.9455 -7.39092 12.7678
head 3.56549 -3.39575 4.94418
rclavicle -2.28602e-014 -1.23246e-014
rhumerus -22.5955 25.2031 -79.4862
rradius 60.0557
rwrist 0.755864
rhand -3.5264 -287.595
rfingers 7.12502
rthumb 22.2087 43.6606
lclavicle -2.28602e-014 -1.23246e-014
lhumerus -37.9303 -16.0122 101.296
lradius 67.5629
lwrist -7.64935
lhand -25.8735 24.72
lfingers 7.12502
lthumb 0.667937 -305.301
rfemur -15.367 -11.6126 23.6812
rtibia 28.6725
rfoot -26.7315 -28.5171
rtoes -4.51133
lfemur -12.3505 0.459736 -23.7261
ltibia 33.4397
lfoot -13.3436 1.50931
ltoes -33.7965
2049
root 0.701754 16.4614 -6.65236 -1586.85 1182.41 -514.52
lowerback -4.18754 4.51021 -1.98577
upperback -6.99277 6.16037 -4.23257
thorax -4.64984 3.17006 -3.28021
lowerneck 0.792069 -5.06743 -7.98767
upperneck 9.87289 -7.58198 13.1349
head 3.5823 -3.48796 5.09557
rclavicle -2.53947e-014 -3.10104e-014
rhumerus -25.404 20.9656 -81.1606
rradius 58.3276
rwrist 1.16639
rhand -3.67999 -288.481
rfingers 7.12502
rthumb 22.0612 42.7573
lclavicle -2.53947e-014 -3.10104e-014
lhumerus -38.4684 -12.8514 99.687
lradius 64.198
lwrist -8.61769
lhand -25.1904 25.2486
lfingers 7.12502
lthumb 1.3277 -304.776
rfemur -15.578 -11.2011 23.5903
rtibia 28.4642
rfoot -27.3183 -28.8288
rtoes -3.99601
lfemur -12.7503 0.543714 -23.8744
ltibia 33.4367
lfoot -13.2599 1.30697
ltoes -33.9438
2050
root 0.717922 16.4542 -6.65206 -1587.63 1182.7 -515.444
lowerback -4.33677 4.68404 -2.00418
upperback -6.98391 6.39891 -4.29963
thorax -4.54228 3.29028 -3.32228
lowerneck 0.83605 -5.18642 -8.05656
upperneck 9.73055 -7.75246 13.3731
head 3.56256 -3.57034 5.17491
rclavicle -2.06736e-014 1.35174e-014
rhumerus -27.7851 16.094 -82.3267
rradius 56.1447
rwrist 1.7463
rhand -3.55796 -289.105
rfingers 7.12502
rthumb 22.1784 42.1475
lclavicle -2.06736e-014 1.35174e-014
lhumerus -38.6858 -9.33331 97.6961
lradius 60.2802
lwrist -9.29977
lhand -24.543 25.7492
lfingers 7.12502
lthumb 1.95293 -304.28
rfemur -15.5135 -10.8722 23.639
rtibia 28.2227
rfoot -27.6198 -28.8002
rtoes -3.8713
lfemur -12.8178 0.768713 -23.8552
ltibia 33.4841
lfoot -13.4038 1.34346
ltoes -33.9286
